<svg id="4cbce268-1805-4883-a5a4-f75a4d38320b" data-name="Layer 1" xmlns="http://www.w3.org/2000/svg" viewBox="0 0 27 18"><title>sg-flag</title><rect width="24" height="18" style="fill:none"/><g id="5486b40a-5d25-45d7-9925-3128be256532" data-name="flag"><g id="2f077ee4-c7b4-4c08-92e7-7587878cd305" data-name="g15168"><rect id="eff4d45d-9a52-4d37-b050-66e398f98661" data-name="rect149" width="27" height="18" style="fill:#fff"/><rect id="f032a703-2e98-4ffd-9018-a9f9d633781c" data-name="rect148" width="27" height="9" style="fill:#df0000"/><path id="915936ca-aac7-48d7-bbd1-eaa4eb3855c3" data-name="path141" d="M6.22687,1.50852a3.16539,3.16539,0,0,0,.02848,6.19457,3.22126,3.22126,0,1,1-1.78242-6.191,3.08081,3.08081,0,0,1,1.754-.00355Z" style="fill:#fff"/><polygon id="632dc8f5-bfb2-4f3b-a1d7-32f23970979b" data-name="polygon142" points="5.737 4.123 5.92 4.69 5.92 4.69 5.435 4.344 4.953 4.693 5.132 4.126 4.651 3.775 5.246 3.77 5.431 3.203 5.62 3.768 6.216 3.769 5.737 4.123" style="fill:#fff"/><polygon id="cc929f91-8da3-4509-b814-4f8b52d9654f" data-name="polygon144" points="6.395 6.075 6.579 6.642 6.579 6.642 6.094 6.296 5.611 6.646 5.791 6.078 5.309 5.727 5.905 5.722 6.09 5.155 6.278 5.72 6.874 5.721 6.395 6.075" style="fill:#fff"/><polygon id="db84e57a-e4cf-4640-abdb-db860258c1f7" data-name="polygon145" points="8.586 6.061 8.77 6.628 8.77 6.628 8.285 6.282 7.802 6.632 7.981 6.064 7.5 5.713 8.096 5.708 8.281 5.141 8.469 5.706 9.065 5.707 8.586 6.061" style="fill:#fff"/><polygon id="943e7aef-0f04-4d37-bdc9-718602702ca9" data-name="polygon146" points="9.24 4.125 9.423 4.692 9.423 4.692 8.938 4.346 8.456 4.695 8.635 4.127 8.154 3.777 8.749 3.771 8.934 3.205 9.123 3.77 9.719 3.771 9.24 4.125" style="fill:#fff"/><polygon id="62912223-3c10-4cf6-95e2-945bbf8c041a" data-name="polygon147" points="7.505 2.84 7.689 3.407 7.689 3.407 7.204 3.061 6.721 3.411 6.9 2.843 6.419 2.492 7.015 2.487 7.199 1.92 7.388 2.485 7.984 2.486 7.505 2.84" style="fill:#fff"/></g></g></svg>