<svg xmlns="http://www.w3.org/2000/svg" x="0px" y="0px" width="372px" height="45.04px" viewBox="0 0 372 45.04"><defs><style>.cls-1{fill:#898989;}.cls-2{fill:#53a834;}.cls-3{fill:#231815;}</style></defs><title>yesstyle.com</title><g id="layer_2" data-name="layer_2"><g id="Layer_1" data-name="Layer 1"><path class="cls-1" d="M370.74,1.78A4.17,4.17,0,0,1,372,4.85a4.16,4.16,0,0,1-1.25,3.06,4.38,4.38,0,0,1-6.13,0,4.16,4.16,0,0,1-1.25-3.06,4.17,4.17,0,0,1,1.25-3.07,4.38,4.38,0,0,1,6.13,0Zm-.41.41a3.78,3.78,0,0,0-5.31,0,3.62,3.62,0,0,0-1.08,2.66,3.74,3.74,0,1,0,7.48,0A3.61,3.61,0,0,0,370.33,2.2Zm-4.17,4.94V2.56h1.7A1.32,1.32,0,0,1,369.2,3.9a1.3,1.3,0,0,1-.39,1,1.32,1.32,0,0,1-.42.28l.8,2h-.83l-.76-1.91h-.78V7.14Zm2.36-3.24a.65.65,0,0,0-.66-.65h-1v1.3h1a.65.65,0,0,0,.66-.65Z"/><path class="cls-2" d="M15.88,26.44q-2.79-5-6.84-11.61L5.11,8.51Q2.35,4.18,1.33,2.62A21.08,21.08,0,0,0,0,.71Q1.7.87,3.9.87T7.8.71A28.43,28.43,0,0,0,9.14,4q.76,1.56,2.43,4.5l2.35,4.27q3.1,5.51,5.54,9.47v0q2.35-3.78,5.16-8.92L27.3,8.51q1.49-2.6,2.21-4.16A37.67,37.67,0,0,0,31,.71a22.58,22.58,0,0,0,2.79.15A21.82,21.82,0,0,0,36.5.71a20.94,20.94,0,0,0-1.33,1.9q-1,1.56-3.78,5.9l-3.65,5.85Q24,20.46,21.33,25.14v3.59q0,7.31.09,10.42a45.21,45.21,0,0,0,.4,5.18,30,30,0,0,0-3.22-.16,30,30,0,0,0-3.22.16,45.18,45.18,0,0,0,.4-5.18q.09-3.11.09-10.42Z"/><path class="cls-2" d="M54.81,44.67a17.32,17.32,0,0,0,.2-2.18q.08-1.56.2-5.62.12-6.38.12-14.36T55.21,8.17q-.12-4.06-.2-5.62a17.3,17.3,0,0,0-.2-2.18,30.57,30.57,0,0,0,3.71.36q2.6.14,5.26.14l4.8,0q2.88,0,5.15-.12a36.43,36.43,0,0,0,3.95-.4,11.65,11.65,0,0,0-.19,2.18,11.16,11.16,0,0,0,.19,2.15,27.55,27.55,0,0,0-3.81-.42q-2.72-.17-5.29-.17H66.36q-2.91,0-5.45.09L60.72,20l5.6,0q2.79,0,5.71-.15a34.4,34.4,0,0,0,4-.37,11,11,0,0,0-.19,2.14,10.77,10.77,0,0,0,.19,2.11,34.61,34.61,0,0,0-4-.37q-2.93-.15-5.71-.15l-5.57,0q0,10.23.15,17.77l4.26.06h2.12q2.88,0,6-.2a39.93,39.93,0,0,0,4.4-.45,11.85,11.85,0,0,0-.19,2.21,11.65,11.65,0,0,0,.19,2.18q-1.33-.22-4.07-.37t-5-.15l-4.8,0q-2.45,0-5,.14T54.81,44.67Z"/><path class="cls-2" d="M118.69,7.58A9.44,9.44,0,0,0,115.35,4a8.5,8.5,0,0,0-4.52-1.27,8,8,0,0,0-5.71,2.1,7.14,7.14,0,0,0-2.21,5.42,6.73,6.73,0,0,0,2.14,5,18.15,18.15,0,0,0,6.78,3.65q5.88,2,8.39,4.89a11.15,11.15,0,0,1,2.48,7.58,12.88,12.88,0,0,1-4.12,9.67A14,14,0,0,1,108.51,45a19.64,19.64,0,0,1-6.55-1,11.09,11.09,0,0,1-4.57-2.91q.37-1.27.56-2.18t.37-2.18l1-.3a11.15,11.15,0,0,0,4.1,4.19A10.65,10.65,0,0,0,109,42.29a8.9,8.9,0,0,0,6.53-2.51,8.66,8.66,0,0,0,2.54-6.44,7.48,7.48,0,0,0-2.14-5.42,17.35,17.35,0,0,0-6.81-3.81q-5.94-2-8.48-4.86a10.69,10.69,0,0,1-2.51-7.43,11,11,0,0,1,3.68-8.39,12.72,12.72,0,0,1,9-3.44,20,20,0,0,1,5.42.71,16.82,16.82,0,0,1,4.67,2.11q-.46,1.36-.74,2.35t-.59,2.41Z"/><path class="cls-3" d="M162.95,7.58A9.44,9.44,0,0,0,159.6,4a8.5,8.5,0,0,0-4.52-1.27,8,8,0,0,0-5.71,2.1,7.14,7.14,0,0,0-2.21,5.42,6.73,6.73,0,0,0,2.14,5,18.15,18.15,0,0,0,6.78,3.65q5.88,2,8.39,4.89a11.15,11.15,0,0,1,2.48,7.58,12.88,12.88,0,0,1-4.12,9.67A14,14,0,0,1,152.76,45a19.64,19.64,0,0,1-6.55-1,11.09,11.09,0,0,1-4.57-2.91q.37-1.27.56-2.18t.37-2.18l1-.3a11.15,11.15,0,0,0,4.1,4.19,10.65,10.65,0,0,0,5.58,1.62,8.9,8.9,0,0,0,6.53-2.51,8.66,8.66,0,0,0,2.54-6.44,7.48,7.48,0,0,0-2.14-5.42,17.35,17.35,0,0,0-6.81-3.81q-5.94-2-8.48-4.86a10.69,10.69,0,0,1-2.51-7.43,11,11,0,0,1,3.68-8.39,12.72,12.72,0,0,1,9-3.44,20,20,0,0,1,5.42.71,16.82,16.82,0,0,1,4.67,2.11q-.46,1.36-.74,2.35t-.59,2.41Z"/><path class="cls-3" d="M198.16,36.52q.12-6.29.12-14,0-10.81-.25-18.59l-3.34,0q-3.1,0-6.21.15a35,35,0,0,0-4.19.37,10.3,10.3,0,0,0,.19-2.07,10.31,10.31,0,0,0-.19-2.07q3.47.22,7.83.37t6.72.15h3.28q2.54,0,6.9-.15t7.65-.37a10.38,10.38,0,0,0-.19,2.07,10.37,10.37,0,0,0,.19,2.07,37.4,37.4,0,0,0-4.26-.37Q209.31,4,206.27,4h-2.38q-.22,7.74-.22,18.53,0,7.81.12,14,.12,4.06.2,5.62a17.05,17.05,0,0,0,.2,2.18,33.45,33.45,0,0,0-6.44,0,18.66,18.66,0,0,0,.22-2.2Q198,40.58,198.16,36.52Z"/><path class="cls-3" d="M247.65,26.44q-2.79-5-6.84-11.61l-3.93-6.31q-2.76-4.33-3.78-5.9a21.19,21.19,0,0,0-1.33-1.9q1.7.16,3.9.15t3.9-.15A28.43,28.43,0,0,0,240.91,4q.76,1.56,2.43,4.5l2.35,4.27q3.1,5.51,5.54,9.47v0q2.35-3.78,5.16-8.92l2.66-4.83q1.49-2.6,2.21-4.16A37.81,37.81,0,0,0,262.72.71a22.58,22.58,0,0,0,2.79.15,21.82,21.82,0,0,0,2.76-.15,21.15,21.15,0,0,0-1.33,1.9q-1,1.56-3.78,5.9l-3.65,5.85q-3.71,6.1-6.41,10.77v3.59q0,7.31.09,10.42a45.42,45.42,0,0,0,.4,5.18,33.44,33.44,0,0,0-6.44,0,45.21,45.21,0,0,0,.4-5.18q.09-3.11.09-10.42Z"/><path class="cls-3" d="M288.22,44.67a17.43,17.43,0,0,0,.2-2.18q.08-1.56.2-5.62.12-6.28.12-14.18t-.12-14.18q-.12-4.05-.2-5.62a17.41,17.41,0,0,0-.2-2.18,29.94,29.94,0,0,0,3.22.15,30,30,0,0,0,3.22-.15,16,16,0,0,0-.2,2.15q-.08,1.56-.2,5.65-.12,6.28-.12,14.17,0,10.55.19,18.25,2.1.09,4.46.06h2.29q2.91,0,6-.2a38.53,38.53,0,0,0,4.36-.45,11.89,11.89,0,0,0-.19,2.21,11.69,11.69,0,0,0,.19,2.18q-1.36-.22-4.1-.37t-5-.15l-5.11,0q-2.51,0-5.12.14A38.24,38.24,0,0,0,288.22,44.67Z"/><path class="cls-3" d="M330.83,44.67a17.45,17.45,0,0,0,.2-2.18q.08-1.56.2-5.62.12-6.38.12-14.36t-.12-14.33q-.12-4.06-.2-5.62a17.43,17.43,0,0,0-.2-2.18,30.61,30.61,0,0,0,3.71.36q2.6.14,5.26.14l4.8,0q2.88,0,5.15-.12a36.19,36.19,0,0,0,3.95-.4,11.69,11.69,0,0,0-.19,2.18,11.19,11.19,0,0,0,.19,2.15,27.47,27.47,0,0,0-3.81-.42q-2.72-.17-5.29-.17h-2.23q-2.91,0-5.45.09L336.74,20l5.6,0q2.79,0,5.71-.15a34.39,34.39,0,0,0,4-.37,11,11,0,0,0-.19,2.14,10.78,10.78,0,0,0,.19,2.11,34.5,34.5,0,0,0-4-.37q-2.93-.15-5.71-.15l-5.57,0q0,10.23.15,17.77l4.26.06h2.12q2.88,0,6-.2a39.92,39.92,0,0,0,4.4-.45,11.88,11.88,0,0,0-.19,2.21,11.68,11.68,0,0,0,.19,2.18q-1.33-.22-4.07-.37t-5-.15l-4.8,0q-2.45,0-5,.14T330.83,44.67Z"/></g></g></svg>